<svg width="15" height="12" viewBox="0 0 15 12" fill="none" xmlns="http://www.w3.org/2000/svg">
<path d="M0.970405 5.03677C4.76072 3.38577 7.28756 2.29723 8.55099 1.77134C12.1626 0.269632 12.9121 0.00882028 13.4016 8.59012e-05C13.5092 -0.00174222 13.7489 0.0248669 13.9053 0.151414C14.0353 0.258054 14.0719 0.402273 14.0902 0.503429C14.1065 0.604585 14.1288 0.835132 14.1105 1.0151C13.9155 3.07073 13.0685 8.05907 12.6379 10.3615C12.4571 11.3357 12.0976 11.6623 11.7502 11.6942C10.9946 11.7637 10.4217 11.1954 9.6905 10.7161C8.5469 9.96601 7.90101 9.49923 6.78992 8.76737C5.50617 7.92155 6.33895 7.4566 7.0702 6.69692C7.26114 6.49806 10.5883 3.47251 10.6513 3.19809C10.6594 3.16376 10.6676 3.03579 10.5904 2.96835C10.5152 2.90071 10.4034 2.92387 10.3222 2.94215C10.2064 2.96815 8.38031 4.17634 4.83781 6.56651C4.31984 6.92279 3.85064 7.09646 3.42814 7.08732C2.96501 7.07737 2.07132 6.82488 1.4071 6.60916C0.594604 6.34449 -0.0533968 6.20454 0.00347818 5.75502C0.0319157 5.52102 0.354936 5.28154 0.970405 5.03677Z" fill="white"/>
</svg>
